#!OML:ASF H:\Terrain\Walking\May29\JustinRory\rory.ASF
:FULLY-SPECIFIED
:DEGREES
406
root 1.73426 18.4695 13.0721 -6.27582 -46.2688 17.3486
lowerback 12.0724 -6.10081 2.70843
upperback 6.55825 -7.95544 6.15974
thorax 0.731687 -4.13104 5.81231
lowerneck -7.30432 4.01639 4.60401
upperneck 34.5246 6.26364 -7.55832
head 13.1711 2.17486 -3.0229
rclavicle 7.31528e-014 -1.08139e-013
rhumerus -50.8892 -31.6564 -39.2111
rradius 23.351
rwrist 9.60715
rhand -3.0743 23.6179
rfingers 7.12502
rthumb 22.6427 -5.07389
lclavicle 7.31528e-014 -1.08139e-013
lhumerus -33.0826 -1.54809 78.6208
lradius 51.357
lwrist -16.0588
lhand 11.7061 19.0095
lfingers 7.12502
lthumb 36.7426 45.1401
rfemur -26.644 7.18421 9.06168
rtibia 40.7141
rfoot -12.8166 -11.0325
rtoes 5.6155
lfemur -25.3741 13.0349 -23.1857
ltibia 53.5257
lfoot -3.48658 -5.95198
ltoes -19.9327
407
root 1.68541 18.5038 13.2716 -5.8535 -46.2707 17.178
lowerback 11.8976 -6.02235 2.75615
upperback 6.52042 -7.84788 5.93019
thorax 0.732991 -4.06499 5.51368
lowerneck -7.4189 3.88581 4.5578
upperneck 34.4683 5.98655 -7.24795
head 13.1329 2.08301 -2.92465
rclavicle -7.15625e-014 -5.08889e-014
rhumerus -50.3761 -31.2211 -41.0001
rradius 23.8643
rwrist 10.3198
rhand -1.99184 24.587
rfingers 7.12502
rthumb 23.6812 -3.97431
lclavicle -7.15625e-014 -5.08889e-014
lhumerus -32.5791 -1.8121 78.4345
lradius 51.1943
lwrist -16.5214
lhand 12.8252 19.5796
lfingers 7.12502
lthumb 37.8007 45.4327
rfemur -26.1623 7.12728 8.78782
rtibia 40.4536
rfoot -12.6412 -11.0339
rtoes 3.67343
lfemur -25.849 12.2809 -22.9187
ltibia 51.5599
lfoot -4.33458 -5.21528
ltoes -18.2046
408
root 1.62625 18.5402 13.4738 -5.17773 -46.5435 16.7301
lowerback 11.5168 -5.9242 2.79966
upperback 6.51908 -7.73875 5.86038
thorax 0.910151 -4.00632 5.3586
lowerneck -7.33988 3.82499 4.51782
upperneck 34.3112 5.89572 -7.21719
head 13.0366 2.04487 -2.91331
rclavicle 4.6118e-014 -9.54166e-014
rhumerus -49.3744 -30.5581 -42.9689
rradius 24.1576
rwrist 11.1404
rhand -2.05208 25.3665
rfingers 7.12502
rthumb 23.6234 -3.20227
lclavicle 4.6118e-014 -9.54166e-014
lhumerus -31.8347 -1.28502 78.3293
lradius 50.7218
lwrist -16.9823
lhand 13.7668 20.0371
lfingers 7.12502
lthumb 38.6896 45.6454
rfemur -25.7881 7.32852 8.76543
rtibia 40.2088
rfoot -12.847 -11.2051
rtoes 0.821435
lfemur -26.228 11.6989 -22.3909
ltibia 49.3345
lfoot -4.94537 -4.6335
ltoes -16.7493
409
root 1.57814 18.5731 13.6646 -4.31091 -46.8003 15.8403
lowerback 11.5483 -5.90665 2.88953
upperback 6.46518 -7.70269 5.98432
thorax 0.840974 -3.98934 5.44392
lowerneck -7.38083 3.85882 4.5598
upperneck 34.3589 6.01699 -7.47945
head 13.0883 2.06723 -3.01111
rclavicle 1.59028e-015 -2.70347e-014
rhumerus -47.9269 -28.6531 -45.5037
rradius 24.8493
rwrist 9.5042
rhand -0.642811 25.9657
rfingers 7.12502
rthumb 24.9745 -2.4221
lclavicle 1.59028e-015 -2.70347e-014
lhumerus -31.3642 -0.546825 78.2291
lradius 50.4607
lwrist -17.3303
lhand 15.2052 20.0944
lfingers 7.12502
lthumb 40.0448 45.3069
rfemur -25.3525 7.61965 9.10853
rtibia 39.9559
rfoot -12.6909 -11.4305
rtoes -1.0244
lfemur -26.4273 11.0206 -21.4999
ltibia 46.8864
lfoot -5.5409 -4.02734
ltoes -16.7286
410
root 1.53798 18.5915 13.8665 -3.75637 -46.9421 15.2395
lowerback 11.6631 -5.79593 2.95541
upperback 6.43208 -7.53676 5.93407
thorax 0.715429 -3.90153 5.35436
lowerneck -7.38695 3.79969 4.65691
upperneck 34.3121 5.87406 -7.35707
head 13.0555 2.03174 -2.99722
rclavicle -1.08139e-013 -1.74931e-014
rhumerus -47.1474 -26.9939 -47.5827
rradius 25.8871
rwrist 7.72266
rhand 1.53764 26.3773
rfingers 7.12502
rthumb 27.0623 -1.70338
lclavicle -1.08139e-013 -1.74931e-014
lhumerus -30.9275 -0.697781 78.0673
lradius 50.4402
lwrist -17.3671
lhand 17.1796 20.0999
lfingers 7.12502
lthumb 41.8992 44.7237
rfemur -24.7875 7.63553 9.19852
rtibia 39.7149
rfoot -12.4487 -11.3147
rtoes 0.274718
lfemur -26.3507 10.2545 -20.831
ltibia 44.2595
lfoot -5.77551 -3.44918
ltoes -17.1718
411
root 1.48534 18.6244 14.0886 -3.64368 -47.1677 15.3586
lowerback 11.4388 -5.69556 2.60756
upperback 6.3572 -7.44206 5.73045
thorax 0.761577 -3.85532 5.29891
lowerneck -7.03635 3.74247 4.505
upperneck 34.0229 5.71682 -7.03784
head 12.8241 1.99163 -2.8586
rclavicle 1.59028e-014 -4.29375e-014
rhumerus -46.4108 -25.1803 -49.6377
rradius 26.7771
rwrist 6.28683
rhand 2.11012 26.4902
rfingers 7.12502
rthumb 27.6099 -1.50418
lclavicle 1.59028e-014 -4.29375e-014
lhumerus -30.552 -0.54743 77.9211
lradius 50.3835
lwrist -16.9737
lhand 17.9752 19.9685
lfingers 7.12502
lthumb 42.6444 44.3389
rfemur -24.1711 7.52798 8.70143
rtibia 39.4003
rfoot -12.1767 -10.9691
rtoes 2.18934
lfemur -26.1271 9.68153 -20.7278
ltibia 41.4125
lfoot -5.91565 -3.03711
ltoes -12.3406
412
root 1.42965 18.6652 14.3057 -3.23254 -47.4454 15.0946
lowerback 11.2597 -5.67275 2.41802
upperback 6.23905 -7.43002 5.67932
thorax 0.747573 -3.85046 5.33426
lowerneck -6.93361 3.78182 4.41922
upperneck 33.9574 5.76666 -6.97523
head 12.7728 2.01019 -2.81185
rclavicle 4.29375e-014 -3.97569e-014
rhumerus -45.5312 -23.1261 -51.5777
rradius 27.653
rwrist 4.35216
rhand 2.20664 26.6168
rfingers 7.12502
rthumb 27.7022 -1.3628
lclavicle 4.29375e-014 -3.97569e-014
lhumerus -30.2735 0.271925 77.8246
lradius 50.2756
lwrist -16.6287
lhand 17.8535 19.757
lfingers 7.12502
lthumb 42.5305 44.1668
rfemur -23.5804 7.64552 8.48032
rtibia 38.9812
rfoot -11.5313 -10.7406
rtoes 1.41239
lfemur -25.9008 9.08796 -20.3039
ltibia 38.3627
lfoot -6.25535 -2.52458
ltoes -10.7271
413
root 1.36619 18.7189 14.5255 -2.47648 -47.8527 14.4485
lowerback 10.9215 -5.55028 2.43721
upperback 6.14738 -7.28094 5.71439
thorax 0.823543 -3.77458 5.31302
lowerneck -6.95146 3.78455 4.41637
upperneck 34.0767 5.7473 -6.90819
head 12.824 2.00383 -2.79162
rclavicle -5.725e-014 1.06549e-013
rhumerus -44.8885 -21.7259 -52.8313
rradius 28.4626
rwrist 3.27421
rhand 2.22988 26.7939
rfingers 7.12502
rthumb 27.7244 -1.18207
lclavicle -5.725e-014 1.06549e-013
lhumerus -30.0338 0.854774 77.7676
lradius 50.3441
lwrist -16.2468
lhand 18.1387 20.0666
lfingers 7.12502
lthumb 42.7974 44.3838
rfemur -23.1225 7.97491 8.52339
rtibia 38.498
rfoot -10.7587 -10.5343
rtoes -1.54289
lfemur -25.5768 8.38433 -19.5387
ltibia 35.0781
lfoot -6.29992 -1.73021
ltoes -10.5214
414
root 1.30563 18.7719 14.7534 -2.15284 -48.2783 14.025
lowerback 10.8012 -5.44003 2.25527
upperback 6.09357 -7.15598 5.69729
thorax 0.840978 -3.71627 5.37301
lowerneck -6.68201 3.72855 4.14761
upperneck 34.1282 5.62798 -6.65279
head 12.7607 1.94667 -2.66431
rclavicle -9.38264e-014 1.74931e-014
rhumerus -44.217 -20.0386 -54.169
rradius 29.1401
rwrist 2.32139
rhand 0.397201 25.6269
rfingers 7.12502
rthumb 25.9708 -2.61869
lclavicle -9.38264e-014 1.74931e-014
lhumerus -29.9556 1.30937 77.7356
lradius 50.6253
lwrist -15.5917
lhand 18.0724 20.7425
lfingers 7.12502
lthumb 42.7354 45.0813
rfemur -22.3355 8.10837 8.4639
rtibia 38.0315
rfoot -10.2882 -10.2091
rtoes -5.10481
lfemur -24.8365 7.6936 -18.9016
ltibia 31.7196
lfoot -6.03792 -0.893618
ltoes -10.2693
415
root 1.25294 18.7975 14.9765 -2.29782 -48.4127 14.2569
lowerback 10.7278 -5.34495 1.64407
upperback 6.00034 -7.07837 5.53748
thorax 0.82617 -3.68727 5.53163
lowerneck -6.56475 3.67898 4.14832
upperneck 34.2239 5.47073 -6.4014
head 12.7564 1.90404 -2.59075
rclavicle -7.95139e-015 2.06736e-014
rhumerus -43.9067 -19.3608 -55.1264
rradius 30.0792
rwrist 1.62367
rhand -1.60695 23.8677
rfingers 7.12502
rthumb 24.0503 -4.64534
lclavicle -7.95139e-015 2.06736e-014
lhumerus -29.6483 1.61678 77.7236
lradius 50.6949
lwrist -14.8164
lhand 17.1921 20.9262
lfingers 7.12502
lthumb 41.9109 45.546
rfemur -21.5128 7.88133 7.90565
rtibia 37.584
rfoot -10.1608 -9.76937
rtoes -7.35799
lfemur -24.1407 6.83939 -18.7731
ltibia 28.3814
lfoot -5.71332 -0.0631465
ltoes -9.87918
416
root 1.19495 18.8197 15.2083 -1.65307 -48.497 13.9524
lowerback 10.1075 -5.13754 1.50856
upperback 5.84082 -6.83143 5.48231
thorax 0.979887 -3.56088 5.46891
lowerneck -6.48926 3.59464 4.44362
upperneck 34.3244 5.21223 -6.14329
head 12.7656 1.85753 -2.57874
rclavicle 7.15625e-014 -9.38264e-014
rhumerus -43.9741 -19.7973 -55.3733
rradius 31.0418
rwrist 1.33161
rhand -0.913125 25.5001
rfingers 7.12502
rthumb 24.7155 -2.92338
lclavicle 7.15625e-014 -9.38264e-014
lhumerus -29.0734 1.59597 77.8677
lradius 50.6055
lwrist -13.7269
lhand 16.4988 20.4845
lfingers 7.12502
lthumb 41.2605 45.3175
rfemur -21.0994 7.74333 7.60515
rtibia 37.1414
rfoot -10.0782 -9.2543
rtoes -7.36203
lfemur -23.8212 5.94671 -18.3108
ltibia 25.1515
lfoot -5.59615 0.786541
ltoes -9.97942
